<svg width="91" height="21" viewBox="0 0 91 21" fill="none" xmlns="http://www.w3.org/2000/svg">
  <path d="M78.092 13.3659C78.4211 15.5868 80.025 16.286 82.328 16.286C84.3843 16.286 85.8238 15.7513 85.8238 14.6409C85.8238 13.8595 85.1657 13.2014 83.8085 12.9547L79.5726 12.2144C76.6937 11.7209 73.7738 10.1581 73.7738 6.45679C73.7738 2.42644 77.1873 0 82.1635 0C85.7003 0 90.3889 0.98703 90.8412 6.6213H85.8648C85.7415 4.85288 84.0554 4.27711 82.1635 4.27711C80.1072 4.27711 79.1202 4.97625 79.1202 5.92215C79.1202 6.66242 79.6548 7.52607 81.5467 7.85508L85.0835 8.43087C88.127 8.96547 90.9642 10.3638 90.9642 14.1474C90.9642 18.5068 87.181 20.6453 82.2046 20.6453C77.8864 20.6453 73.5271 19.0414 73.1158 13.3249L78.092 13.3659Z" fill="currentColor"/>
  <path d="M64.7609 0.133984H70.1485V20.1521H64.7609V0.133984Z" fill="currentColor"/>
  <path d="M48.4789 13.3659C48.8078 15.5868 50.4117 16.286 52.7148 16.286C54.7711 16.286 56.2105 15.7513 56.2105 14.6409C56.2105 13.8595 55.5525 13.2014 54.1954 12.9547L49.9593 12.2144C47.0805 11.7209 44.1606 10.1581 44.1606 6.45679C44.1606 2.42644 47.5741 0 52.5503 0C56.0871 0 60.7755 0.98703 61.2279 6.6213H56.2516C56.1283 4.85288 54.4421 4.27711 52.5503 4.27711C50.494 4.27711 49.507 4.97625 49.507 5.92215C49.507 6.66242 50.0416 7.52607 51.9334 7.85508L55.4702 8.43087C58.5136 8.96547 61.3512 10.3638 61.3512 14.1474C61.3512 18.5068 57.5677 20.6453 52.5914 20.6453C48.2732 20.6453 43.9138 19.0414 43.5025 13.3249L48.4789 13.3659Z" fill="currentColor"/>
  <path fill-rule="evenodd" clip-rule="evenodd" d="M20.8509 10.3227C20.8509 4.23605 16.5738 5.76615e-05 10.446 5.76615e-05C4.27711 5.76615e-05 0 4.23605 0 10.3227C0 11.7102 0.22528 13.0023 0.647007 14.1699C0.829957 14.0453 1.0119 13.9309 1.18872 13.8259C2.71743 12.9186 4.33883 12.6923 5.92378 12.9069C5.57659 12.1562 5.38751 11.2829 5.38751 10.3227C5.38751 7.11487 7.44382 4.89406 10.446 4.89406C13.4071 4.89406 15.4634 7.11487 15.4634 10.3227C15.4634 12.9928 14.0015 14.9904 11.7678 15.5513C14.3107 17.4436 16.8128 17.7182 18.5013 17.1314C19.9954 15.3685 20.8509 13.0266 20.8509 10.3227ZM17.0679 18.4966C15.309 18.8257 12.8143 18.4116 9.63989 16.0882C9.24866 15.7992 8.84928 15.5496 8.44431 15.3364C8.251 15.2583 8.0651 15.1685 7.88711 15.0676C5.56607 14.0463 3.10227 14.1624 0.958158 14.9321C1.22106 15.5068 1.53487 16.0465 1.89559 16.5469C3.30185 15.8531 5.65081 15.3859 8.61362 17.4692C11.9151 19.7873 14.19 19.8002 15.3623 19.5365C15.3698 19.5348 15.3774 19.5331 15.3847 19.5313C15.9881 19.2403 16.5507 18.8937 17.0679 18.4966ZM13.0763 20.3252C11.4984 20.3908 9.35305 19.9195 6.6727 18.072C5.24553 17.1194 3.5819 16.9605 2.30653 17.0758C4.15645 19.288 7.00732 20.6042 10.446 20.6042C11.3673 20.6042 12.2469 20.5085 13.0763 20.3252Z" fill="currentColor"/>
  <path d="M36.6735 19.8037H42.8106L34.6541 0.400586H29.4396L20.8523 19.8037H26.5941L31.8167 8.94217L36.6735 19.8037Z" fill="currentColor"/>
</svg>
